<svg width="28" height="23" viewBox="0 0 28 23" fill="none" xmlns="http://www.w3.org/2000/svg">
<path d="M27.5686 2.96549C26.5597 3.41258 25.4758 3.71466 24.3364 3.8512C25.5121 3.1477 26.3917 2.04047 26.811 0.736117C25.7064 1.39223 24.4975 1.85406 23.2368 2.10153C22.389 1.19633 21.2661 0.596345 20.0423 0.394732C18.8186 0.193119 17.5626 0.401157 16.4692 0.986548C15.3758 1.57194 14.5063 2.50193 13.9956 3.63213C13.485 4.76234 13.3617 6.02952 13.645 7.23695C11.4068 7.12457 9.21724 6.54282 7.21841 5.52946C5.21958 4.5161 3.45617 3.09377 2.04261 1.35478C1.55927 2.18853 1.28136 3.1552 1.28136 4.1847C1.28082 5.11149 1.50905 6.02408 1.94579 6.8415C2.38254 7.65893 3.0143 8.35591 3.78502 8.87062C2.89119 8.84218 2.01708 8.60066 1.23544 8.16616V8.23866C1.23535 9.53851 1.68498 10.7984 2.50804 11.8044C3.33109 12.8105 4.47688 13.5009 5.75098 13.7583C4.9218 13.9827 4.05247 14.0158 3.20865 13.855C3.56813 14.9734 4.26835 15.9515 5.2113 16.6522C6.15425 17.3529 7.29272 17.7412 8.46732 17.7627C6.47336 19.328 4.01085 20.1771 1.4759 20.1734C1.02686 20.1735 0.5782 20.1473 0.132233 20.0948C2.70535 21.7492 5.70064 22.6273 8.75973 22.6239C19.1151 22.6239 24.7762 14.0471 24.7762 6.60862C24.7762 6.36695 24.7701 6.12287 24.7593 5.8812C25.8604 5.08488 26.8109 4.09878 27.5662 2.96912L27.5686 2.96549Z" fill="black"/>
</svg>
