<svg width="27" height="19" viewBox="0 0 27 19" fill="none" xmlns="http://www.w3.org/2000/svg">
<path d="M25.6579 3.38564C25.5135 2.84767 25.2302 2.35706 24.8366 1.96293C24.443 1.5688 23.9527 1.28497 23.4149 1.13984C21.4354 0.607422 13.5 0.607422 13.5 0.607422C13.5 0.607422 5.56465 0.607422 3.58506 1.13701C3.04703 1.28167 2.55653 1.56534 2.16283 1.95955C1.76912 2.35375 1.48607 2.8446 1.34209 3.38281C0.8125 5.36523 0.8125 9.5 0.8125 9.5C0.8125 9.5 0.8125 13.6348 1.34209 15.6144C1.63379 16.7075 2.49473 17.5685 3.58506 17.8602C5.56465 18.3926 13.5 18.3926 13.5 18.3926C13.5 18.3926 21.4354 18.3926 23.4149 17.8602C24.5081 17.5685 25.3662 16.7075 25.6579 15.6144C26.1875 13.6348 26.1875 9.5 26.1875 9.5C26.1875 9.5 26.1875 5.36523 25.6579 3.38564ZM10.9795 13.2949V5.70508L17.5498 9.47168L10.9795 13.2949Z" fill="black"/>
</svg>
